<svg width="22" height="22" viewBox="0 0 22 22" fill="none" xmlns="http://www.w3.org/2000/svg">
<path d="M1.07393 21.9999C0.861442 21.9999 0.653714 21.937 0.477022 21.8189C0.300331 21.7009 0.162615 21.5331 0.0812934 21.3368C-2.81218e-05 21.1405 -0.0213016 20.9245 0.020164 20.7161C0.0616295 20.5076 0.163971 20.3162 0.314244 20.166L20.1658 0.314429C20.3673 0.112947 20.6406 -0.000244141 20.9255 -0.000244141C21.2104 -0.000244141 21.4837 0.112947 21.6852 0.314429C21.8867 0.51591 21.9999 0.789178 21.9999 1.07412C21.9999 1.35905 21.8867 1.63232 21.6852 1.8338L1.83362 21.6854C1.73395 21.7852 1.61552 21.8644 1.48515 21.9184C1.35478 21.9724 1.21503 22.0001 1.07393 21.9999Z" fill="#FBB731"/>
<path d="M20.9257 21.9999C20.7846 22.0001 20.6448 21.9724 20.5145 21.9184C20.3841 21.8644 20.2657 21.7852 20.166 21.6854L0.314429 1.8338C0.112947 1.63232 -0.000244141 1.35905 -0.000244141 1.07412C-0.000244141 0.789178 0.112947 0.51591 0.314429 0.314429C0.51591 0.112947 0.789178 -0.000244141 1.07412 -0.000244141C1.35905 -0.000244141 1.63232 0.112947 1.8338 0.314429L21.6854 20.166C21.8356 20.3162 21.938 20.5076 21.9794 20.7161C22.0209 20.9245 21.9996 21.1405 21.9183 21.3368C21.837 21.5331 21.6993 21.7009 21.5226 21.8189C21.3459 21.937 21.1382 21.9999 20.9257 21.9999Z" fill="#FBB731"/>
</svg>
