<svg width="220" height="56" viewBox="0 0 220 56" fill="none" xmlns="http://www.w3.org/2000/svg">
<rect width="42" height="56" fill="#FBB731"/>
<path fill-rule="evenodd" clip-rule="evenodd" d="M40.5 7H43.5C54.2644 7.01239 62.9876 15.7356 63 26.5C63 27.3284 62.3284 28 61.5 28H22.5C21.6716 28 21 27.3284 21 26.5C21.0124 15.7356 29.7356 7.01239 40.5 7ZM40.4999 9.99996C31.9723 10.0102 24.8533 16.5086 24.0675 25H59.9324C59.1467 16.5085 52.0277 10.0102 43.5 9.99996H40.4999Z" fill="#443737"/>
<path fill-rule="evenodd" clip-rule="evenodd" d="M55.5 37.1084H61.5001C62.3285 37.1084 63.0001 37.7739 63 38.5949V41.5677C62.9951 45.6704 59.6401 48.9951 55.5 49H28.5C24.3599 48.9951 21.0049 45.6704 21 41.5677V38.5949C21 37.7739 21.6716 37.1084 22.5 37.1084H43.4999C43.8245 37.1084 44.1403 37.2127 44.3999 37.4057L49.5 41.1961L54.6 37.4057C54.8596 37.2127 55.1754 37.1084 55.5 37.1084ZM55.5 46.0271C57.9853 46.0271 60 44.0306 60 41.5677V40.0813H55.9995L50.4 44.2434C49.8667 44.6397 49.1333 44.6397 48.6 44.2434L43.0005 40.0813H24V41.5677C24 44.0306 26.0147 46.0271 28.5 46.0271H55.5Z" fill="#443737"/>
<path d="M61.5 31.0361H22.5C21.6716 31.0361 21 31.7158 21 32.5542C21 33.3925 21.6716 34.0723 22.5 34.0723H61.5C62.3284 34.0723 63 33.3926 63 32.5542C63 31.7157 62.3284 31.0361 61.5 31.0361Z" fill="#443737"/>
<path d="M34.4096 15.8555C33.5712 15.8555 32.8915 16.5351 32.8915 17.3735V18.8916C32.8915 19.73 33.5712 20.4097 34.4096 20.4097C35.248 20.4097 35.9277 19.73 35.9277 18.8916V17.3735C35.9277 16.5351 35.248 15.8555 34.4096 15.8555Z" fill="#443737"/>
<path d="M42 15.8555C41.1616 15.8555 40.4819 16.5351 40.4819 17.3735V18.8916C40.4819 19.73 41.1616 20.4097 42 20.4097C42.8384 20.4097 43.5181 19.7299 43.5181 18.8915V17.3735C43.5181 16.5351 42.8384 15.8555 42 15.8555Z" fill="#443737"/>
<path d="M49.5903 15.8555C48.7519 15.8555 48.0723 16.5351 48.0723 17.3735V18.8916C48.0723 19.73 48.7519 20.4097 49.5903 20.4097C50.4288 20.4097 51.1084 19.73 51.1084 18.8916V17.3735C51.1083 16.5351 50.4287 15.8555 49.5903 15.8555Z" fill="#443737"/>
<path d="M74.704 36V19.08H82.456C84.264 19.08 85.656 19.472 86.632 20.256C87.624 21.04 88.12 22.112 88.12 23.472C88.12 24.368 87.896 25.144 87.448 25.8C87 26.44 86.376 26.92 85.576 27.24C86.536 27.512 87.272 27.992 87.784 28.68C88.312 29.368 88.576 30.216 88.576 31.224C88.576 32.728 88.048 33.904 86.992 34.752C85.952 35.584 84.528 36 82.72 36H74.704ZM78.256 26.04H81.808C83.632 26.04 84.544 25.336 84.544 23.928C84.544 22.536 83.632 21.84 81.808 21.84H78.256V26.04ZM78.256 33.24H82.216C83.176 33.24 83.88 33.056 84.328 32.688C84.776 32.32 85 31.76 85 31.008C85 30.272 84.776 29.72 84.328 29.352C83.88 28.984 83.176 28.8 82.216 28.8H78.256V33.24ZM98.6395 36.264C96.2395 36.264 94.4075 35.648 93.1435 34.416C91.8955 33.184 91.2715 31.352 91.2715 28.92V19.08H94.9915V28.944C94.9915 30.32 95.3035 31.36 95.9275 32.064C96.5515 32.752 97.4555 33.096 98.6395 33.096C101.056 33.096 102.264 31.712 102.264 28.944V19.08H105.936V28.92C105.936 31.352 105.32 33.184 104.088 34.416C102.856 35.648 101.04 36.264 98.6395 36.264ZM109.227 36V19.08H116.955C118.843 19.08 120.299 19.536 121.323 20.448C122.347 21.36 122.859 22.632 122.859 24.264C122.859 25.528 122.531 26.584 121.875 27.432C121.235 28.264 120.315 28.832 119.115 29.136C119.963 29.392 120.659 30.008 121.203 30.984L123.939 36H119.835L116.907 30.6C116.667 30.168 116.371 29.872 116.019 29.712C115.667 29.536 115.251 29.448 114.771 29.448H112.947V36H109.227ZM112.947 26.76H116.283C118.283 26.76 119.283 25.96 119.283 24.36C119.283 22.776 118.283 21.984 116.283 21.984H112.947V26.76ZM134.197 36.264C132.293 36.264 130.677 35.904 129.349 35.184C128.037 34.464 127.037 33.456 126.349 32.16C125.661 30.864 125.317 29.344 125.317 27.6C125.317 25.808 125.669 24.256 126.373 22.944C127.093 21.632 128.125 20.616 129.469 19.896C130.813 19.176 132.429 18.816 134.317 18.816C135.501 18.816 136.621 18.984 137.677 19.32C138.749 19.656 139.621 20.104 140.293 20.664L139.093 23.568C138.357 23.024 137.605 22.64 136.837 22.416C136.069 22.176 135.237 22.056 134.341 22.056C132.629 22.056 131.341 22.536 130.477 23.496C129.629 24.44 129.205 25.808 129.205 27.6C129.205 29.408 129.637 30.776 130.501 31.704C131.381 32.632 132.677 33.096 134.389 33.096C135.301 33.096 136.261 32.952 137.269 32.664V29.352H133.621V26.664H140.341V34.968C139.509 35.384 138.549 35.704 137.461 35.928C136.373 36.152 135.285 36.264 134.197 36.264ZM151.482 36.264C149.818 36.264 148.354 35.904 147.09 35.184C145.842 34.448 144.866 33.432 144.162 32.136C143.474 30.824 143.13 29.288 143.13 27.528C143.13 25.768 143.474 24.24 144.162 22.944C144.866 21.632 145.842 20.616 147.09 19.896C148.338 19.176 149.802 18.816 151.482 18.816C153.162 18.816 154.626 19.176 155.874 19.896C157.138 20.616 158.114 21.632 158.802 22.944C159.506 24.24 159.858 25.76 159.858 27.504C159.858 29.264 159.506 30.8 158.802 32.112C158.114 33.424 157.138 34.448 155.874 35.184C154.626 35.904 153.162 36.264 151.482 36.264ZM151.482 33.096C152.89 33.096 153.986 32.608 154.77 31.632C155.57 30.64 155.97 29.272 155.97 27.528C155.97 25.768 155.578 24.408 154.794 23.448C154.01 22.472 152.906 21.984 151.482 21.984C150.09 21.984 148.994 22.472 148.194 23.448C147.41 24.408 147.018 25.768 147.018 27.528C147.018 29.272 147.41 30.64 148.194 31.632C148.994 32.608 150.09 33.096 151.482 33.096ZM168.783 36.264C167.455 36.264 166.199 36.096 165.015 35.76C163.847 35.424 162.871 34.968 162.087 34.392L163.167 31.464C163.919 31.992 164.775 32.408 165.735 32.712C166.711 33.016 167.727 33.168 168.783 33.168C169.935 33.168 170.759 32.992 171.255 32.64C171.767 32.272 172.023 31.816 172.023 31.272C172.023 30.808 171.847 30.44 171.495 30.168C171.143 29.896 170.527 29.664 169.647 29.472L166.935 28.896C163.911 28.256 162.399 26.688 162.399 24.192C162.399 23.12 162.687 22.184 163.263 21.384C163.839 20.568 164.639 19.936 165.663 19.488C166.703 19.04 167.903 18.816 169.263 18.816C170.431 18.816 171.527 18.984 172.551 19.32C173.575 19.656 174.423 20.128 175.095 20.736L174.015 23.472C172.703 22.432 171.111 21.912 169.239 21.912C168.231 21.912 167.447 22.112 166.887 22.512C166.343 22.896 166.071 23.4 166.071 24.024C166.071 24.488 166.239 24.864 166.575 25.152C166.911 25.44 167.495 25.672 168.327 25.848L171.039 26.424C174.143 27.096 175.695 28.616 175.695 30.984C175.695 32.04 175.407 32.968 174.831 33.768C174.271 34.552 173.471 35.168 172.431 35.616C171.407 36.048 170.191 36.264 168.783 36.264Z" fill="#443737"/>
</svg>
